<svg width="165" height="165" viewBox="0 0 165 165" fill="none" xmlns="http://www.w3.org/2000/svg">
<rect width="165" height="165" rx="82.5" fill="white"/>
<path d="M73.125 73.125H77.8125V77.8125H73.125V73.125ZM87.1875 101.25H91.875V105.938H87.1875V101.25ZM101.25 73.125H105.938V77.8125H101.25V73.125ZM87.1875 73.125H91.875V77.8125H87.1875V73.125ZM73.125 82.5H77.8125V87.1875H73.125V82.5ZM59.0625 82.5H63.75V87.1875H59.0625V82.5ZM101.25 82.5H105.938V87.1875H101.25V82.5ZM87.1875 82.5H91.875V87.1875H87.1875V82.5ZM73.125 91.875H77.8125V96.5625H73.125V91.875ZM59.0625 91.875H63.75V96.5625H59.0625V91.875ZM101.25 91.875H105.938V96.5625H101.25V91.875ZM87.1875 91.875H91.875V96.5625H87.1875V91.875ZM73.125 101.25H77.8125V105.938H73.125V101.25ZM59.0625 101.25H63.75V105.938H59.0625V101.25ZM120 49.6875V115.312H45V49.6875H59.0625V45H63.75V49.6875H101.25V45H105.938V49.6875H120ZM49.6875 54.375V63.75H115.312V54.375H105.938V59.0625H101.25V54.375H63.75V59.0625H59.0625V54.375H49.6875ZM115.312 110.625V68.4375H49.6875V110.625H115.312Z" fill="#3778CE"/>
</svg>
