<svg width="378" height="33" viewBox="0 0 378 33" fill="none" xmlns="http://www.w3.org/2000/svg">
<path d="M6.36038 32.0913C7.76312 32.6612 9.34121 32.968 11.007 32.968C13.5056 32.968 15.8289 32.2228 17.5823 30.8639C19.6864 29.242 20.8261 26.8749 20.8261 24.2009C20.8261 18.4584 15.8727 16.3543 11.8837 14.6009C7.93847 12.9351 6.09737 11.8831 6.09737 9.82281C6.09737 9.77898 6.22888 5.78994 11.007 5.78994C13.6371 5.78994 15.4344 6.75432 16.5741 8.72692C16.8809 9.25295 17.5385 9.47213 18.1083 9.20911L20.3001 8.28857C20.9576 7.98172 21.2207 7.19268 20.87 6.53514C18.8974 2.89679 15.4782 0.968018 11.007 0.968018C3.90559 0.968018 1.27545 6.40363 1.27545 9.82281C1.27545 15.3023 6.09737 17.3625 9.99874 19.0283C14.0755 20.8256 16.0042 21.9214 16.0042 24.2009C16.0042 27.3132 12.7604 28.1461 11.0508 28.1461C7.41244 28.1461 5.79052 26.2173 5.08915 24.2886C4.86997 23.6749 4.30011 23.368 3.68641 23.4995L1.36312 23.9817C0.661755 24.1571 0.223399 24.9023 0.442577 25.5598C1.4508 28.5845 3.4234 30.8201 6.09737 32.0036H6.36038V32.0913Z" fill="white"/>
<path d="M38.3292 32.3105C45.4306 32.3105 51.2169 26.3927 51.2169 19.0721L51.1731 2.58994C51.1731 1.9324 50.647 1.36254 49.9457 1.36254H47.5785C46.921 1.36254 46.3511 1.9324 46.3511 2.58994L46.395 19.116C46.395 23.7187 42.8005 27.4886 38.3292 27.4886C33.9018 27.4886 30.2635 23.7187 30.2635 19.116V2.58994C30.2635 1.9324 29.6936 1.36254 29.0361 1.36254H26.6251C25.9676 1.36254 25.3977 1.9324 25.4415 2.58994V19.116C25.4415 26.3927 31.2279 32.3105 38.3292 32.3105Z" fill="white"/>
<path d="M61.7135 25.8228H64.6504C71.3573 25.8228 76.9683 20.5187 77.0559 13.8119C77.1874 6.9735 71.6642 1.40637 64.8696 1.40637H56.8916C56.1902 1.40637 55.6642 1.9324 55.6642 2.63377V30.9077C55.6642 31.5653 56.1902 32.1351 56.8916 32.1351H59.2587C59.9162 32.1351 60.4861 31.5653 60.4861 30.9077V27.0502C60.4861 26.3927 61.0121 25.8228 61.7135 25.8228ZM61.7135 6.22829H64.6943C68.8587 6.22829 72.3217 9.60363 72.234 13.7242C72.1902 17.7571 68.9025 21.0009 64.8696 21.0009H61.7135C61.0121 21.0009 60.4861 20.4749 60.4861 19.7735V7.45569C60.4861 6.79816 61.0121 6.22829 61.7135 6.22829Z" fill="white"/>
<path d="M99.8008 27.2256H87.5268C86.8255 27.2256 86.2994 26.6557 86.2994 25.9982V20.9132C86.2994 20.2119 86.8255 19.642 87.5268 19.642H94.4967C95.1981 19.642 95.7241 19.116 95.7241 18.4146V16.0913C95.7241 15.3899 95.1981 14.8201 94.4967 14.8201H87.5268C86.8255 14.8201 86.2994 14.294 86.2994 13.5927V7.45569C86.2994 6.79816 86.8255 6.22829 87.5268 6.22829H99.8008C100.458 6.22829 101.028 5.65843 101.028 5.00089V2.63377C101.028 1.97624 100.458 1.40637 99.8008 1.40637H82.7049C82.0035 1.40637 81.4775 1.97624 81.4775 2.63377V30.8201C81.4775 31.5214 82.0035 32.0475 82.7049 32.0475H99.8008C100.458 32.0475 101.028 31.5214 101.028 30.8201V28.4529C101.028 27.7954 100.458 27.2256 99.8008 27.2256Z" fill="white"/>
<path d="M110.272 27.0502C110.272 26.3927 110.798 25.8228 111.499 25.8228H114.656C115.313 25.8228 115.927 25.779 116.584 25.6913C117.067 25.6036 117.505 25.8228 117.768 26.2612L121.012 31.4338C121.231 31.7845 121.625 32.0036 122.064 32.0036H124.825C125.79 32.0036 126.404 30.9516 125.878 30.1187L122.371 24.4639C122.02 23.9379 122.151 23.2803 122.634 22.842C125.264 20.5625 126.93 17.1872 126.842 13.4173C126.754 6.71048 121.143 1.40637 114.436 1.40637H106.678C105.976 1.40637 105.45 1.9324 105.45 2.63377V30.9077C105.45 31.5653 105.976 32.1351 106.678 32.1351H109.045C109.702 32.1351 110.272 31.5653 110.272 30.9077V27.0502ZM111.499 6.22829H114.48C118.645 6.22829 122.108 9.60363 122.02 13.7242C121.976 17.7571 118.688 21.0009 114.656 21.0009H111.499C110.798 21.0009 110.272 20.4749 110.272 19.7735V7.45569C110.272 6.79816 110.798 6.22829 111.499 6.22829Z" fill="white"/>
<path d="M151.225 20.6064H158.809C159.51 20.6064 160.036 20.0365 160.036 19.3351V17.0119C160.036 16.3105 159.51 15.7845 158.809 15.7845H151.225C150.524 15.7845 149.998 15.2146 149.998 14.5132V7.45569C149.998 6.79816 150.524 6.22829 151.225 6.22829H164.508C165.209 6.22829 165.779 5.65843 165.779 5.00089V2.63377C165.779 1.97624 165.209 1.40637 164.508 1.40637H146.404C145.702 1.40637 145.176 1.97624 145.176 2.63377V30.8639C145.176 31.5653 145.702 32.1351 146.404 32.1351H148.727C149.428 32.1351 149.998 31.5653 149.998 30.8639V21.8338C149.998 21.1324 150.524 20.6064 151.225 20.6064Z" fill="white"/>
<path d="M172.999 27.1817H184.922C185.448 27.1817 185.886 27.5324 186.062 28.0146L187.245 31.1708C187.421 31.653 187.859 32.0036 188.385 32.0036H190.884C191.76 32.0036 192.374 31.1269 192.067 30.3379L181.766 2.23925C181.591 1.75706 181.152 1.45021 180.626 1.45021H177.295C176.812 1.45021 176.33 1.75706 176.155 2.23925L165.854 30.3379C165.591 31.1269 166.16 32.0036 167.037 32.0036H169.536C170.062 32.0036 170.5 31.653 170.675 31.1708L171.859 28.0146C172.034 27.5324 172.473 27.1817 172.999 27.1817ZM179.267 9.42829L183.695 21.5269C183.826 21.9214 183.519 22.3598 183.081 22.3598H174.84C174.401 22.3598 174.095 21.9214 174.226 21.5269L178.654 9.42829C178.741 9.16528 179.18 9.16528 179.267 9.42829Z" fill="white"/>
<path d="M201.631 22.0091L202.639 20.8256C203.121 20.2557 204.042 20.2557 204.524 20.8256L213.467 31.5214C213.686 31.8283 214.036 32.0036 214.431 32.0036H217.456C218.508 32.0036 219.121 30.7762 218.42 29.9434L207.417 16.7488C207.023 16.2666 207.023 15.6091 207.417 15.1708L217.236 3.46665C217.938 2.63377 217.368 1.40637 216.316 1.40637H213.247C212.853 1.40637 212.502 1.58172 212.283 1.84473L203.516 12.2338C202.814 13.1105 201.368 12.5845 201.368 11.4447V2.67761C201.368 1.97624 200.798 1.40637 200.097 1.40637H197.773C197.072 1.40637 196.546 1.97624 196.546 2.67761V30.7324C196.546 31.4338 197.072 32.0036 197.773 32.0036H200.097C200.798 32.0036 201.368 31.4338 201.368 30.7324V22.7982C201.368 22.4913 201.456 22.2283 201.631 22.0091Z" fill="white"/>
<path d="M241.453 27.2256H229.179C228.478 27.2256 227.952 26.6557 227.952 25.9982V20.9132C227.952 20.2119 228.478 19.642 229.179 19.642H236.149C236.85 19.642 237.376 19.116 237.376 18.4146V16.0913C237.376 15.3899 236.85 14.8201 236.149 14.8201H229.179C228.478 14.8201 227.952 14.294 227.952 13.5927V7.45569C227.952 6.79816 228.478 6.22829 229.179 6.22829H241.453C242.111 6.22829 242.681 5.65843 242.681 5.00089V2.63377C242.681 1.97624 242.111 1.40637 241.453 1.40637H224.357C223.656 1.40637 223.13 1.97624 223.13 2.63377V30.8201C223.13 31.5214 223.656 32.0475 224.357 32.0475H241.453C242.111 32.0475 242.681 31.5214 242.681 30.8201V28.4529C242.681 27.7954 242.111 27.2256 241.453 27.2256Z" fill="white"/>
<path d="M261.015 2.67761V30.8201C261.015 31.4776 261.541 32.0475 262.243 32.0475H278.549C279.251 32.0475 279.821 31.4776 279.821 30.8201V28.4529C279.821 27.7954 279.251 27.2256 278.549 27.2256H267.064C266.363 27.2256 265.837 26.6557 265.837 25.9982V2.67761C265.837 1.97624 265.267 1.40637 264.566 1.40637H262.243C261.541 1.40637 261.015 1.97624 261.015 2.67761Z" fill="white"/>
<path d="M298.595 32.3543C306.53 32.3543 312.973 25.3845 312.973 16.7927C312.973 8.24473 306.53 1.23103 298.595 1.23103C290.661 1.23103 284.217 8.24473 284.217 16.7927C284.217 25.3845 290.661 32.3543 298.595 32.3543ZM298.595 6.09679C303.856 6.09679 308.151 10.8749 308.151 16.7927C308.151 22.7105 303.856 27.5324 298.595 27.5324C293.291 27.5324 289.039 22.7105 289.039 16.7927C289.039 10.8749 293.335 6.09679 298.595 6.09679Z" fill="white"/>
<path d="M332.254 32.2666C334.665 32.2666 337.032 31.6529 339.136 30.4694V30.6886C339.136 31.3899 339.706 31.916 340.363 31.916H342.731C343.388 31.916 343.958 31.3899 343.958 30.6886V17.3625C343.958 16.6612 343.388 16.1351 342.731 16.1351H332.955C332.298 16.1351 331.728 16.6612 331.728 17.3625V19.7297C331.728 20.3872 332.298 20.9571 332.955 20.9571H337.909C338.566 20.9571 339.136 21.5269 339.136 22.1845V23.9817C339.136 24.3324 339.005 24.6392 338.742 24.9023C336.9 26.5242 334.621 27.4009 332.254 27.4009C326.687 27.4009 322.216 22.6228 322.216 16.705C322.216 10.831 326.687 6.00911 332.254 6.00911C334.796 6.00911 337.251 7.06117 339.136 8.9461C339.574 9.38446 340.276 9.42829 340.802 9.03377L342.643 7.54336C343.169 7.10501 343.257 6.27213 342.731 5.7461C339.969 2.85295 336.199 1.1872 332.254 1.1872C324.057 1.1872 317.394 8.15706 317.394 16.705C317.394 25.2968 324.057 32.2666 332.254 32.2666Z" fill="white"/>
<path d="M362.765 32.3543C370.699 32.3543 377.143 25.3845 377.143 16.7927C377.143 8.24473 370.699 1.23103 362.765 1.23103C354.831 1.23103 348.387 8.24473 348.387 16.7927C348.387 25.3845 354.831 32.3543 362.765 32.3543ZM362.765 6.09679C368.025 6.09679 372.321 10.8749 372.321 16.7927C372.321 22.7105 368.025 27.5324 362.765 27.5324C357.461 27.5324 353.209 22.7105 353.209 16.7927C353.209 10.8749 357.505 6.09679 362.765 6.09679Z" fill="white"/>
</svg>
