<svg xmlns="http://www.w3.org/2000/svg" viewBox="0 0 160 153.41"><defs><style>.cls-1{fill:#fff;}</style></defs><title>SharePoint_brandmark-monochromatic</title><g id="Layer_2" data-name="Layer 2"><g id="Layer_1-2" data-name="Layer 1"><path class="cls-1" d="M121.75,41.31C117.54,17.83,98,0,74.59,0c-21.09,0-39,14.47-45.47,34.51H6.85A6.85,6.85,0,0,0,0,41.36v68.49a6.85,6.85,0,0,0,6.85,6.85h39.7c0,.35,0,.7,0,1a35.65,35.65,0,0,0,70,9.72h.29a43.22,43.22,0,0,0,5-86.16ZM74.59,6.42c20,0,36.71,14.84,40.92,34.63A43.17,43.17,0,0,0,82.19,58.37v-17a6.84,6.84,0,0,0-6.85-6.85H35.58C41.74,18.08,56.9,6.42,74.59,6.42ZM32.06,97.22a26.23,26.23,0,0,1-6.22-1.82V86.94a20.06,20.06,0,0,0,6.3,3,24.62,24.62,0,0,0,6.94,1.13,11.94,11.94,0,0,0,6.29-1.33A4.21,4.21,0,0,0,47.5,86a4.05,4.05,0,0,0-1.18-2.89,12,12,0,0,0-3.27-2.28c-1.39-.71-3.44-1.63-6.16-2.78a34.31,34.31,0,0,1-6.16-3.24,11.71,11.71,0,0,1-3.66-3.88,10.42,10.42,0,0,1-1.26-5.3,10.16,10.16,0,0,1,2.38-6.85,14,14,0,0,1,6.31-4.1,26.46,26.46,0,0,1,8.62-1.32q7.18,0,11.35,1.61l0,8a17.72,17.72,0,0,0-5.13-2.12,25.4,25.4,0,0,0-6-.73,13,13,0,0,0-6.17,1.3,4,4,0,0,0-2.46,3.7,3.76,3.76,0,0,0,1,2.63,9.44,9.44,0,0,0,2.79,2c1.17.58,2.92,1.36,5.24,2.32a5.38,5.38,0,0,1,.75.3,43.79,43.79,0,0,1,6.59,3.27A11.93,11.93,0,0,1,55,79.59a11.43,11.43,0,0,1,1.4,5.94,11,11,0,0,1-2.24,7.14,12.42,12.42,0,0,1-5.95,4,26.94,26.94,0,0,1-8.47,1.21A44.66,44.66,0,0,1,32.06,97.22ZM82.18,147a29.28,29.28,0,0,1-29.24-29.24q0-.52,0-1H75.34a6.85,6.85,0,0,0,6.85-6.85V88.52a29.24,29.24,0,0,1,0,58.47Zm35.49-26c.1-1.08.16-2.17.16-3.28A35.69,35.69,0,0,0,82.19,82.1V71.66A36.8,36.8,0,1,1,117.67,121Zm-.79,4.88v0Zm.33-1.57a.5.5,0,0,0,0-.12A.5.5,0,0,1,117.21,124.34Zm.27-1.63a.68.68,0,0,1,0-.14A.68.68,0,0,0,117.48,122.71Z"/></g></g></svg>