<svg width="165" height="165" viewBox="0 0 165 165" fill="none" xmlns="http://www.w3.org/2000/svg">
<rect width="165" height="165" rx="82.5" fill="white"/>
<path d="M111.51 69.4471C110.273 69.4471 109.127 69.2233 108.074 68.7757C107.021 68.3281 106.086 67.6962 105.27 66.8799C104.454 66.0637 103.822 65.129 103.374 64.0758C102.927 63.0226 102.69 61.8641 102.664 60.6003C102.664 59.3892 102.887 58.2438 103.335 57.1643C103.783 56.0848 104.414 55.1501 105.231 54.3602C106.047 53.5703 106.982 52.9384 108.035 52.4645C109.088 51.9905 110.246 51.7536 111.51 51.7536C112.721 51.7536 113.867 51.9774 114.946 52.425C116.026 52.8726 116.961 53.5045 117.75 54.3207C118.54 55.1369 119.172 56.0848 119.646 57.1643C120.12 58.2438 120.357 59.3892 120.357 60.6003C120.357 61.8378 120.133 62.9831 119.686 64.0363C119.238 65.0895 118.606 66.0242 117.79 66.8404C116.974 67.6567 116.026 68.2886 114.946 68.7362C113.867 69.1838 112.721 69.4207 111.51 69.4471ZM111.51 56.8088C110.457 56.8088 109.562 57.1775 108.825 57.9147C108.087 58.6519 107.719 59.5471 107.719 60.6003C107.719 61.6535 108.087 62.5487 108.825 63.2859C109.562 64.0232 110.457 64.3918 111.51 64.3918C112.563 64.3918 113.459 64.0232 114.196 63.2859C114.933 62.5487 115.302 61.6535 115.302 60.6003C115.302 59.5471 114.933 58.6519 114.196 57.9147C113.459 57.1775 112.563 56.8088 111.51 56.8088ZM122.885 75.7662V94.5656C122.885 96.3033 122.556 97.9358 121.897 99.4629C121.239 100.99 120.344 102.333 119.212 103.491C118.08 104.65 116.737 105.558 115.183 106.216C113.63 106.875 111.984 107.204 110.246 107.204C109.246 107.204 108.232 107.085 107.205 106.848C106.179 106.611 105.217 106.243 104.322 105.742C103.664 107.875 102.703 109.81 101.439 111.548C100.175 113.286 98.7009 114.787 97.0158 116.051C95.3307 117.314 93.4481 118.289 91.3681 118.973C89.288 119.658 87.1553 120 84.97 120C82.3897 120 79.9674 119.552 77.703 118.657C75.4387 117.762 73.4113 116.524 71.6209 114.945C69.8304 113.365 68.356 111.496 67.1975 109.336C66.039 107.177 65.2754 104.834 64.9068 102.306H45.357C44.4355 102.306 43.6456 101.977 42.9874 101.319C42.3291 100.661 42 99.871 42 98.9494V65.2212C42 64.2996 42.3291 63.5097 42.9874 62.8515C43.6456 62.1933 44.4355 61.8641 45.357 61.8641H74.3065C73.5429 60.258 73.1611 58.5729 73.1611 56.8088C73.1611 55.1764 73.4639 53.6493 74.0695 52.2275C74.6751 50.8057 75.5176 49.555 76.5972 48.4755C77.6767 47.396 78.9273 46.5534 80.3491 45.9479C81.7709 45.3423 83.3112 45.0263 84.97 45C86.6024 45 88.1295 45.3028 89.5513 45.9084C90.9731 46.514 92.2238 47.3565 93.3033 48.436C94.3828 49.5155 95.2254 50.7662 95.831 52.188C96.4365 53.6098 96.7525 55.1501 96.7788 56.8088C96.7788 58.4413 96.476 59.9684 95.8705 61.3902C95.2649 62.812 94.4223 64.0627 93.3428 65.1422C92.2633 66.2217 91.0126 67.0642 89.5908 67.6698C88.169 68.2754 86.6288 68.5914 84.97 68.6177C84.5487 68.6177 84.1274 68.5914 83.7062 68.5387C83.2849 68.486 82.8636 68.4202 82.4423 68.3412V71.9747H119.093C120.146 71.9747 121.042 72.3433 121.779 73.0806C122.516 73.8178 122.885 74.713 122.885 75.7662ZM84.97 50.0553C84.0484 50.0553 83.1796 50.2264 82.3633 50.5687C81.5471 50.911 80.8231 51.3981 80.1912 52.03C79.5592 52.6619 79.0853 53.386 78.7694 54.2022C78.4534 55.0184 78.2691 55.8873 78.2164 56.8088C78.2164 57.7304 78.3876 58.5993 78.7299 59.4155C79.0721 60.2317 79.5592 60.9558 80.1912 61.5877C80.8231 62.2196 81.534 62.6935 82.3239 63.0095C83.1137 63.3254 83.9958 63.5097 84.97 63.5624C85.8915 63.5624 86.7604 63.3913 87.5766 63.049C88.3928 62.7067 89.1037 62.2196 89.7093 61.5877C90.3149 60.9558 90.802 60.2449 91.1706 59.455C91.5392 58.6651 91.7235 57.783 91.7235 56.8088C91.7235 55.8873 91.5524 55.0184 91.2101 54.2022C90.8678 53.386 90.3807 52.6751 89.7488 52.0695C89.1169 51.4639 88.3928 50.9768 87.5766 50.6082C86.7604 50.2396 85.8915 50.0553 84.97 50.0553ZM65.3807 75.1343H72.9637V68.8152H51.4787V75.1343H59.0616V95.3554H65.3807V75.1343ZM100.136 99.7788V77.03H82.4423V98.9494C82.4423 99.871 82.1132 100.661 81.455 101.319C80.7967 101.977 80.0068 102.306 79.0853 102.306H70.0016C70.3439 104.123 70.9626 105.808 71.8578 107.362C72.753 108.915 73.8589 110.245 75.1754 111.351C76.4918 112.457 77.9795 113.339 79.6382 113.997C81.297 114.655 83.0742 114.971 84.97 114.945C87.05 114.945 89.0116 114.55 90.8547 113.76C92.6977 112.97 94.3038 111.89 95.673 110.521C97.0421 109.152 98.1348 107.546 98.951 105.703C99.7672 103.86 100.162 101.885 100.136 99.7788ZM117.829 94.5656V77.03H105.191V100.134C105.876 100.819 106.652 101.319 107.521 101.635C108.39 101.951 109.299 102.122 110.246 102.148C111.3 102.148 112.287 101.951 113.209 101.556C114.13 101.161 114.933 100.621 115.618 99.9368C116.302 99.2522 116.842 98.4492 117.237 97.5276C117.632 96.6061 117.829 95.6187 117.829 94.5656Z" fill="#6264A7"/>
</svg>
