<svg xmlns="http://www.w3.org/2000/svg" viewBox="0 0 96.875 96.875"><defs/><path fill="white" d="M 95.2 11.5 c -1.2 -5.2 -5.4 -9 -10.5 -9.5 c -12 -1.3 -24.2 -1.3 -36.3 -1.3 c -12.1 0 -24.3 0 -36.3 1.3 c -5.1 0.6 -9.3 4.4 -10.5 9.5 C 0 18.9 0 26.9 0 34.4 C 0 42 0 50 1.7 57.3 c 1.2 5.2 5.4 9 10.5 9.5 c 12 1.3 24.2 1.3 36.3 1.3 c 12.1 0 24.3 0 36.3 -1.3 c 5.1 -0.6 9.3 -4.4 10.5 -9.5 c 1.7 -7.3 1.7 -15.3 1.7 -22.9 c 0 -7.6 0 -15.6 -1.7 -22.9 z M 35.9 49.5 V 17.4 c 10.3 5.4 20.5 10.7 30.8 16.1 c -10.3 5.3 -20.5 10.6 -30.8 16 z"/></svg>