<svg xmlns="http://www.w3.org/2000/svg" viewBox="0 0 349.09 233.53"><defs><style>.a{fill:#fff;}</style></defs><title>pnp-training-white</title><path class="a" d="M108.37,67h-6.65V43.89h6.65q13.48,0,13.49,11.41Q121.86,67,108.37,67ZM252.48,55.3q0-11.41-13.49-11.41h-6.65V67H239Q252.47,67,252.48,55.3ZM349.09,0V233.53H0V140.81H0V0H349.09ZM215.45,105.1h16.89V79.61h8.06q13.6,0,21.73-6.89a22.5,22.5,0,0,0,8.14-18q0-23.58-28.35-23.59H215.45Zm-66.44,0h16.53V75a12.33,12.33,0,0,1,2.77-8.26,8.91,8.91,0,0,1,7.07-3.25q8.9,0,8.89,12.28V105.1h16.48V72.74Q200.75,51,183,51a19,19,0,0,0-17.21,9.65h-.21V52.25H149Zm-64.18,0h16.89V79.61h8.06q13.6,0,21.73-6.89a22.5,22.5,0,0,0,8.14-18q0-23.58-28.35-23.59H84.83Zm257.26,35.71H7v85.72H342.09Zm-288.54,21H17.36v8.35H30.28v37.16H40.56V170.16h13Zm35.7,32.05c-.44-.69-.94-1.41-1.48-2.14a24.57,24.57,0,0,0-1.69-2.05A14.75,14.75,0,0,0,84.24,188a6.55,6.55,0,0,0-2-1v-.13a16.61,16.61,0,0,0,4.2-1.84,12.81,12.81,0,0,0,3.22-2.79,12.24,12.24,0,0,0,2.07-3.64,13,13,0,0,0,.73-4.39q0-12.39-16.57-12.38H59.67v45.51H69.92V189.9h2.76a4,4,0,0,1,1.76.39A6,6,0,0,1,76,191.44a12.7,12.7,0,0,1,1.48,1.79c.48.7,1,1.49,1.52,2.38l7.08,11.71H97.85ZM74.56,169.49q7.14,0,7.14,6a6.37,6.37,0,0,1-2,4.79,7.37,7.37,0,0,1-5.3,1.9H69.92V169.49Zm51.38-7.68H113.78L97.22,207.32h11.1l3.21-10.12h16.19L131,207.32h11.18Zm-12.22,27.51,5-15.42a17.7,17.7,0,0,0,.8-4h.25a20,20,0,0,0,.76,4.1l4.89,15.29Zm44.34-27.51H147.81v45.51h10.25Zm51.29,0h-9.68V187a48.74,48.74,0,0,0,.25,6.25h-.13c-.69-1.23-1.45-2.47-2.28-3.71l-18.06-27.71h-11v45.51h9.68v-25q0-5-.26-7.36H178a42.35,42.35,0,0,0,2.28,3.78L199,207.32h10.35Zm20.66,0H219.76v45.51H230Zm51.29,0h-9.68V187a48.74,48.74,0,0,0,.25,6.25h-.13c-.69-1.23-1.45-2.47-2.28-3.71L251.4,161.81h-11v45.51H250v-25q0-5-.26-7.36h.13a42.35,42.35,0,0,0,2.28,3.78L271,207.32H281.3Zm47.76,19.58H309.71v8.19h9.1v8.89a13.66,13.66,0,0,1-5.84,1,12.68,12.68,0,0,1-9.72-3.84q-3.62-3.84-3.61-10.85t4-11.06a13.84,13.84,0,0,1,10.39-4.14,25.38,25.38,0,0,1,12.89,3v-9.61a37.24,37.24,0,0,0-12.76-2q-11.49,0-18.41,6.76t-6.92,17.48q0,10.67,6.34,16.75t17.31,6.07q9.9,0,16.56-3.84Z"/></svg>